<svg width="19" height="18" viewBox="0 0 19 18" fill="none" xmlns="http://www.w3.org/2000/svg">
<path d="M18.087 8.33311L1.58705 0.0831151C1.45772 0.0184402 1.31246 -0.00747368 1.16876 0.00849392C1.02505 0.0244615 0.889018 0.0816297 0.777047 0.173115C0.670115 0.262735 0.590302 0.380405 0.546579 0.512898C0.502856 0.645391 0.496958 0.787454 0.529547 0.923115L2.74955 9.00062L0.499547 17.0556C0.468967 17.1689 0.465397 17.2878 0.489125 17.4027C0.512853 17.5176 0.563217 17.6254 0.636166 17.7173C0.709116 17.8092 0.802615 17.8827 0.909147 17.9319C1.01568 17.9811 1.13227 18.0047 1.24955 18.0006C1.36695 17.9999 1.48256 17.9717 1.58705 17.9181L18.087 9.66811C18.2099 9.60518 18.313 9.50956 18.385 9.39178C18.457 9.27401 18.4951 9.13865 18.4951 9.00062C18.4951 8.86258 18.457 8.72722 18.385 8.60945C18.313 8.49168 18.2099 8.39605 18.087 8.33311ZM2.41205 15.8331L4.06955 9.75062H10.9995V8.25062H4.06955L2.41205 2.16811L16.0695 9.00062L2.41205 15.8331Z" fill="#1F8506"/>
</svg>
