<svg width="22" height="20" viewBox="0 0 22 20" fill="none" xmlns="http://www.w3.org/2000/svg">
<path d="M17.5 5V2C17.5 1.73478 17.3946 1.48043 17.2071 1.29289C17.0196 1.10536 16.7652 1 16.5 1H3.5C2.96957 1 2.46086 1.21071 2.08579 1.58579C1.71071 1.96086 1.5 2.46957 1.5 3C1.5 3.53043 1.71071 4.03914 2.08579 4.41421C2.46086 4.78929 2.96957 5 3.5 5H18.5C18.7652 5 19.0196 5.10536 19.2071 5.29289C19.3946 5.48043 19.5 5.73478 19.5 6V10M19.5 10H16.5C15.9696 10 15.4609 10.2107 15.0858 10.5858C14.7107 10.9609 14.5 11.4696 14.5 12C14.5 12.5304 14.7107 13.0391 15.0858 13.4142C15.4609 13.7893 15.9696 14 16.5 14H19.5C19.7652 14 20.0196 13.8946 20.2071 13.7071C20.3946 13.5196 20.5 13.2652 20.5 13V11C20.5 10.7348 20.3946 10.4804 20.2071 10.2929C20.0196 10.1054 19.7652 10 19.5 10Z" stroke="#333333" stroke-width="2" stroke-linecap="round" stroke-linejoin="round"/>
<path d="M1.5 3V17C1.5 17.5304 1.71071 18.0391 2.08579 18.4142C2.46086 18.7893 2.96957 19 3.5 19H18.5C18.7652 19 19.0196 18.8946 19.2071 18.7071C19.3946 18.5196 19.5 18.2652 19.5 18V14" stroke="#333333" stroke-width="2" stroke-linecap="round" stroke-linejoin="round"/>
</svg>
